<svg width="35" height="35" viewBox="0 0 40 40" fill="none" xmlns="http://www.w3.org/2000/svg">
<path d="M30.6268 4.69125C29.8766 4.69125 29.1374 4.77406 28.4178 4.93813C26.8604 1.94359 23.6138 0 20 0C16.3862 0 13.1396 1.94359 11.5822 4.93813C10.8626 4.77406 10.1234 4.69125 9.37321 4.69125C4.20485 4.69125 0 8.65055 0 13.5173C0 17.9868 3.54624 21.691 8.12868 22.2658V32.9651H15.2132V21.1713H17.7023V32.965H22.2977V21.1713H24.7868V32.965H31.8713V22.2657C36.4537 21.6909 40 17.9867 40 13.5173C40 8.65063 35.7952 4.69125 30.6268 4.69125Z" fill="#7B2F22"/>
<path d="M31.8711 35.3086H8.12885V40H31.8711V35.3086Z" fill="#7B2F22"/>
</svg>
