<svg width="35" height="35" viewBox="0 0 35 35" fill="none" xmlns="http://www.w3.org/2000/svg">
<path d="M33.2314 18.0207C32.9379 14.2457 31.3143 10.7364 28.5957 8.04856C25.975 5.45645 22.6022 3.89074 18.9751 3.5564C19.3514 3.17933 19.5841 2.65891 19.5841 2.08414C19.5841 0.933174 18.6511 0 17.5 0C16.3489 0 15.4159 0.933174 15.4159 2.08414C15.4159 2.65891 15.6486 3.17933 16.0249 3.5564C12.3978 3.89067 9.02501 5.45638 6.40432 8.04856C3.68573 10.7364 2.0622 14.2457 1.76859 18.0207H0V20.1636H1.70789H3.57144V21.6628L8.45715 24.0978L20.5393 25.97L20.5807 25.9757C20.585 25.9757 21.0014 26.035 21.3985 26.2557C21.99 26.5857 22.0657 27.0108 22.0657 27.345V27.8286H20.7928V35H32.9228V27.8286H31.2864V22.2243L29.1935 20.1636H33.292H35V18.0208H33.2314V18.0207ZM11.2221 7.59432L12.1015 9.54857C8.3436 11.2393 7.4643 14.8829 7.45575 14.9193L5.36792 14.4372C5.41215 14.2457 6.50569 9.7164 11.2221 7.59432ZM24.4422 32.225H23.0136V30.7964H24.4422V32.225ZM29.1436 27.8286H24.2086V27.345C24.2086 24.9014 22.0243 23.9928 20.8486 23.8493L9.11429 22.0314L5.7143 20.3371V20.1636H26.1393L29.1435 23.1214V27.8286H29.1436Z" fill="#7B2F22"/>
</svg>
