<svg id="a5132d4b-a033-40b4-9377-e3f673d501b8" data-name="Layer 1" xmlns="http://www.w3.org/2000/svg" viewBox="0 0 85.65 80.43"><defs><style>.bfeb3bd3-3691-465f-a11d-9021c1c79dd8{opacity:0.1;}.fd5d4478-d916-4b62-ac16-a94503277036{fill:#dad1d2;}.\31 cc5219f-4c1a-4502-87c7-16fdd2cf2a90{fill:#fff;}.\33 6ba8f6d-06ae-4963-83ee-c824254308c2{fill:#9c8baf;}.\30 f3db166-70ef-4eb0-87f1-fd3a0c0d6136{fill:#ffc249;}.\36 354fde5-e824-420f-a4f0-6685b69f2e7f{fill:#e2a730;}.\35 cbf0e3c-e8f5-4449-83ca-cb47b88ba831{fill:#ffd892;}.\35 905f260-ca20-438c-b6a5-b8a9f4d7d526{fill:#564866;}</style></defs><title>available</title><g class="bfeb3bd3-3691-465f-a11d-9021c1c79dd8"><ellipse class="fd5d4478-d916-4b62-ac16-a94503277036" cx="43.09" cy="59.01" rx="33.99" ry="16.47"/></g><path class="1cc5219f-4c1a-4502-87c7-16fdd2cf2a90" d="M65.4,28.27c-.37-2.8-.68-5.22-4.32-3.11l-1.79,1-2.76,1.59-1.79,1c-3.64,2.1-4,4.88-4.32,8.1-.33,2.92-1.08,11.39-1.09,11.48l.73-.46c0-.08.74-8.38,1.07-11.28.39-3.47.71-5.21,3.61-6.88l1.79-1,2.76-1.6,1.79-1c2.89-1.67,3.21-.3,3.6,2.72.33,2.52,1.06,10,1.07,10l.74-.39C66.48,38.41,65.73,30.81,65.4,28.27Z"/><path class="1cc5219f-4c1a-4502-87c7-16fdd2cf2a90" d="M65.75,38.88l1.09.64s-.16-5.2-.35-7.14-1.11-6.32-1.11-6.32l-.43.35Z"/><path class="1cc5219f-4c1a-4502-87c7-16fdd2cf2a90" d="M50.42,49l-1.09-.64s1.26-9.62,1.48-11.09,1-4.93,1-4.93l1.21.3a16.51,16.51,0,0,0-1,3.7C51.85,37.87,50.42,49,50.42,49Z"/><path class="36ba8f6d-06ae-4963-83ee-c824254308c2" d="M66.49,28.91c-.36-2.8-.68-5.22-4.32-3.12l-1.79,1-2.76,1.59-1.79,1c-3.64,2.1-3.95,4.88-4.32,8.1C51.18,40.48,50.43,49,50.42,49l.74-.46c0-.08.74-8.38,1.07-11.28.39-3.47.71-5.21,3.6-6.88l1.79-1,2.76-1.6,1.79-1c2.9-1.67,3.21-.3,3.61,2.72.33,2.52,1.06,10,1.06,10l.74-.39C67.57,39.05,66.82,31.45,66.49,28.91Z"/><path class="1cc5219f-4c1a-4502-87c7-16fdd2cf2a90" d="M76.27,34.49c-.37-2.79-.68-5.21-4.32-3.11l-1.79,1L67.39,34l-1.78,1c-3.65,2.1-4,4.88-4.32,8.1C61,46.07,60.2,54.54,60.2,54.62l.73-.45c0-.09.74-8.38,1.07-11.29.39-3.46.71-5.2,3.61-6.87l1.78-1,2.77-1.6,1.79-1c2.89-1.67,3.21-.3,3.6,2.71.33,2.53,1.06,10,1.07,10l.73-.38C77.35,44.64,76.6,37,76.27,34.49Z"/><path class="1cc5219f-4c1a-4502-87c7-16fdd2cf2a90" d="M76.62,45.1l1.09.64s-.16-5.19-.36-7.14-1.1-6.31-1.1-6.31l-.43.34Z"/><path class="1cc5219f-4c1a-4502-87c7-16fdd2cf2a90" d="M61.29,55.26l-1.09-.64S61.46,45,61.68,43.53s1-4.93,1-4.93l1.21.3a16.31,16.31,0,0,0-1,3.7C62.71,44.09,61.29,55.26,61.29,55.26Z"/><path class="36ba8f6d-06ae-4963-83ee-c824254308c2" d="M77.36,35.13C77,32.34,76.68,29.92,73,32l-1.79,1-2.76,1.6-1.79,1c-3.64,2.1-4,4.88-4.32,8.1-.33,2.93-1.08,11.4-1.09,11.48l.74-.45c0-.09.74-8.38,1.07-11.29.39-3.46.71-5.2,3.6-6.87l1.79-1L71.25,34,73,33c2.9-1.67,3.21-.3,3.61,2.71.32,2.53,1.06,10,1.06,10l.74-.38C78.44,45.28,77.69,37.68,77.36,35.13Z"/><path class="0f3db166-70ef-4eb0-87f1-fd3a0c0d6136" d="M61.83,39.34,48,31.43s10.63-4.94,13.27-7.07,4.78-6.8,5.2-16.34c.07-1.7-.12-4.31.35-4.92,1-.59,14,7.63,14,7.63S79.89,22.47,79,26.06s-3.63,6.26-8.09,8.72S61.83,39.34,61.83,39.34Z"/><path class="6354fde5-e824-420f-a4f0-6685b69f2e7f" d="M80.14,10.7S79.4,19.82,79,23.41a11.45,11.45,0,0,1-6,9.5c-4.13,2.5-9.54,5.54-11.14,6.43V41c1-.56,3.34-1.88,6-3.39,1.73-1,3.57-2.07,5.21-3.07C78.48,31.2,79.7,26.83,80.17,23s1.2-13,1.2-13Z"/><path class="0f3db166-70ef-4eb0-87f1-fd3a0c0d6136" d="M66.33,2.79s-.74,9.12-1.18,12.71a11.48,11.48,0,0,1-6,9.5L48,31.43v1.64c1-.56,3.34-1.88,5.95-3.39,1.73-1,3.57-2.07,5.21-3.07,5.49-3.32,6.71-7.69,7.18-11.52.45-3.67,1.2-12.95,1.2-12.95Z"/><polygon class="5cbf0e3c-e8f5-4449-83ca-cb47b88ba831" points="67.55 2.05 66.31 2.79 80.13 10.73 81.38 9.99 67.55 2.05"/><polygon class="5cbf0e3c-e8f5-4449-83ca-cb47b88ba831" points="48.02 33.07 61.83 40.98 61.83 39.34 48.02 31.43 48.02 33.07"/><path class="1cc5219f-4c1a-4502-87c7-16fdd2cf2a90" d="M16,26.22c.36-2.8.68-5.21,4.32-3.11l1.79,1,2.76,1.6,1.79,1c3.64,2.1,3.95,4.88,4.32,8.1.33,2.92,1.08,11.39,1.09,11.48l-.74-.46c0-.08-.74-8.37-1.07-11.28-.39-3.46-.71-5.2-3.6-6.88l-1.79-1-2.76-1.59-1.79-1c-2.9-1.67-3.21-.29-3.61,2.72-.33,2.52-1.06,10-1.06,10l-.74-.39C14.9,36.37,15.65,28.76,16,26.22Z"/><path class="1cc5219f-4c1a-4502-87c7-16fdd2cf2a90" d="M15.63,36.83l-1.1.64s.16-5.2.36-7.14S16,24,16,24l.44.35Z"/><path class="1cc5219f-4c1a-4502-87c7-16fdd2cf2a90" d="M31,47l1.1-.64s-1.27-9.62-1.48-11.09-1-4.93-1-4.93l-1.21.3a16.31,16.31,0,0,1,1,3.7C29.53,35.82,31,47,31,47Z"/><path class="36ba8f6d-06ae-4963-83ee-c824254308c2" d="M14.88,26.86c.37-2.8.68-5.22,4.32-3.11l1.79,1,2.76,1.6,1.79,1c3.64,2.1,4,4.88,4.32,8.1C30.19,38.43,30.94,46.9,31,47l-.73-.46c0-.08-.74-8.37-1.07-11.28-.4-3.46-.71-5.2-3.61-6.88l-1.79-1L21,25.75l-1.79-1C16.31,23,16,24.42,15.6,27.43c-.33,2.52-1.06,10-1.07,10l-.74-.39C13.8,37,14.55,29.4,14.88,26.86Z"/><path class="1cc5219f-4c1a-4502-87c7-16fdd2cf2a90" d="M5.11,32.45c.36-2.8.68-5.22,4.32-3.12l1.79,1L14,32l1.79,1c3.64,2.11,3.95,4.89,4.32,8.11.33,2.92,1.08,11.39,1.09,11.48l-.74-.46c0-.08-.74-8.38-1.07-11.28-.39-3.47-.71-5.21-3.6-6.88l-1.79-1-2.76-1.6-1.79-1C6.53,28.63,6.22,30,5.82,33,5.5,35.54,4.76,43,4.76,43.06L4,42.67C4,42.59,4.78,35,5.11,32.45Z"/><path class="1cc5219f-4c1a-4502-87c7-16fdd2cf2a90" d="M4.76,43.06l-1.1.63s.16-5.19.36-7.14,1.11-6.31,1.11-6.31l.43.34Z"/><path class="1cc5219f-4c1a-4502-87c7-16fdd2cf2a90" d="M20.08,53.21l1.1-.63S19.91,43,19.7,41.48s-1-4.93-1-4.93l-1.21.31a16.31,16.31,0,0,1,1,3.7C18.66,42.05,20.08,53.21,20.08,53.21Z"/><path class="36ba8f6d-06ae-4963-83ee-c824254308c2" d="M4,33.09c.37-2.8.68-5.22,4.32-3.12l1.79,1,2.77,1.59,1.78,1c3.64,2.11,4,4.89,4.32,8.11.33,2.92,1.09,11.39,1.09,11.47l-.73-.45c0-.09-.74-8.38-1.07-11.28-.39-3.47-.71-5.21-3.61-6.88l-1.78-1L10.12,32l-1.79-1c-2.89-1.67-3.21-.3-3.6,2.71-.33,2.53-1.06,10-1.07,10l-.74-.38C2.93,43.23,3.68,35.63,4,33.09Z"/><path class="0f3db166-70ef-4eb0-87f1-fd3a0c0d6136" d="M19.54,37.3l13.81-7.91s-10.63-4.95-13.27-7.08S15.3,15.51,14.89,6c-.08-1.69.11-4.31-.36-4.92C13.51.47.59,8.68.59,8.68S1.48,20.42,2.4,24,6,30.28,10.49,32.74,19.54,37.3,19.54,37.3Z"/><path class="6354fde5-e824-420f-a4f0-6685b69f2e7f" d="M1.23,8.66S2,17.78,2.41,21.37a11.48,11.48,0,0,0,6,9.49c4.12,2.5,9.54,5.54,11.13,6.44v1.63c-1-.55-3.33-1.87-5.95-3.39-1.73-1-3.57-2.07-5.21-3.07C2.89,29.15,1.67,24.78,1.2,21S0,7.94,0,7.94Z"/><path class="0f3db166-70ef-4eb0-87f1-fd3a0c0d6136" d="M15,.74s.74,9.12,1.18,12.72a11.48,11.48,0,0,0,6,9.49l11.13,6.44V31c-1-.55-3.33-1.87-6-3.39-1.73-1-3.57-2.07-5.21-3.07C16.71,21.24,15.49,16.87,15,13,14.57,9.37,13.82.09,13.82.09Z"/><polygon class="5cbf0e3c-e8f5-4449-83ca-cb47b88ba831" points="13.83 0 15.07 0.74 1.24 8.68 0 7.94 13.83 0"/><polygon class="5cbf0e3c-e8f5-4449-83ca-cb47b88ba831" points="33.35 31.02 19.54 38.93 19.54 37.3 33.35 29.39 33.35 31.02"/><ellipse class="5905f260-ca20-438c-b6a5-b8a9f4d7d526" cx="42.96" cy="60.15" rx="10.39" ry="5.36"/><rect class="5905f260-ca20-438c-b6a5-b8a9f4d7d526" x="32.57" y="58.89" width="20.79" height="1.54"/><ellipse class="1cc5219f-4c1a-4502-87c7-16fdd2cf2a90" cx="42.96" cy="59.06" rx="10.39" ry="5.36"/><path class="5905f260-ca20-438c-b6a5-b8a9f4d7d526" d="M43,57.59h0a1.21,1.21,0,0,0,1.21-1.2V24.67A1.21,1.21,0,0,0,43,23.46h0a1.21,1.21,0,0,0-1.2,1.21V56.39A1.2,1.2,0,0,0,43,57.59Z"/><polygon class="6354fde5-e824-420f-a4f0-6685b69f2e7f" points="42.96 45.24 73.64 27.45 73.64 29.19 42.96 46.99 42.96 45.24"/><polygon class="6354fde5-e824-420f-a4f0-6685b69f2e7f" points="42.97 45.24 12.29 27.45 12.29 29.19 42.97 46.99 42.97 45.24"/><polygon class="5cbf0e3c-e8f5-4449-83ca-cb47b88ba831" points="73.64 27.45 43.09 9.77 12.29 27.45 42.97 45.24 73.64 27.45"/><path class="1cc5219f-4c1a-4502-87c7-16fdd2cf2a90" d="M63.18,53.44c.37-2.8.68-5.22,4.32-3.11l1.79,1L72.05,53l1.79,1c3.64,2.1,4,4.88,4.32,8.1.33,2.92,1.08,11.39,1.09,11.48l-.73-.46c0-.08-.74-8.38-1.07-11.28-.39-3.47-.71-5.21-3.61-6.88l-1.79-1-2.76-1.59-1.79-1c-2.89-1.67-3.21-.3-3.6,2.72-.33,2.52-1.06,10-1.07,10l-.74-.39C62.1,63.59,62.85,56,63.18,53.44Z"/><path class="1cc5219f-4c1a-4502-87c7-16fdd2cf2a90" d="M62.83,64.05l-1.09.64s.16-5.2.35-7.14,1.11-6.32,1.11-6.32l.43.35Z"/><path class="1cc5219f-4c1a-4502-87c7-16fdd2cf2a90" d="M78.16,74.21l1.09-.64S78,64,77.77,62.48s-1-4.93-1-4.93l-1.21.3a16.51,16.51,0,0,1,1,3.7C76.73,63,78.16,74.21,78.16,74.21Z"/><path class="36ba8f6d-06ae-4963-83ee-c824254308c2" d="M62.09,54.08c.36-2.8.68-5.22,4.32-3.11l1.79,1L71,53.59l1.79,1c3.64,2.1,4,4.88,4.32,8.1.33,2.92,1.08,11.39,1.09,11.48l-.74-.46c0-.08-.74-8.38-1.07-11.28-.39-3.47-.71-5.21-3.6-6.88l-1.79-1L68.2,53l-1.79-1c-2.9-1.67-3.21-.3-3.61,2.72-.33,2.52-1.06,10-1.06,10L61,64.3C61,64.22,61.76,56.62,62.09,54.08Z"/><path class="0f3db166-70ef-4eb0-87f1-fd3a0c0d6136" d="M63.37,49.35l10.68,6.17c3.86,2.23,5.26,2,6.5-1,1.14-2.77,4.55-11.74,5.1-13.23l-1.34-.77c0,.09-3.72,10-4.86,12.72-1,2.52-2,2.64-5.4.67L63.37,47.75Z"/><path class="1cc5219f-4c1a-4502-87c7-16fdd2cf2a90" d="M52.31,59.67c.37-2.8.68-5.22,4.32-3.12l1.79,1,2.77,1.6,1.78,1c3.65,2.1,4,4.88,4.32,8.1.34,2.93,1.09,11.4,1.09,11.48l-.73-.45c0-.09-.74-8.38-1.07-11.29-.39-3.46-.71-5.2-3.61-6.87l-1.78-1-2.77-1.6-1.79-1c-2.89-1.67-3.21-.3-3.6,2.71-.33,2.53-1.06,10-1.07,10l-.73-.38C51.23,69.81,52,62.21,52.31,59.67Z"/><path class="1cc5219f-4c1a-4502-87c7-16fdd2cf2a90" d="M52,70.27l-1.09.64s.16-5.19.36-7.14,1.1-6.31,1.1-6.31l.43.34Z"/><path class="1cc5219f-4c1a-4502-87c7-16fdd2cf2a90" d="M67.29,80.43l1.09-.64S67.12,70.17,66.9,68.7s-1-4.93-1-4.93l-1.21.3a16.49,16.49,0,0,1,1,3.7C65.87,69.26,67.29,80.43,67.29,80.43Z"/><path class="36ba8f6d-06ae-4963-83ee-c824254308c2" d="M51.22,60.3c.36-2.79.68-5.21,4.32-3.11l1.79,1,2.76,1.6,1.79,1c3.64,2.1,3.95,4.88,4.32,8.1.33,2.93,1.08,11.4,1.09,11.48L66.55,80c0-.09-.74-8.38-1.07-11.29-.39-3.46-.71-5.2-3.6-6.87l-1.79-1-2.76-1.6-1.79-1c-2.9-1.67-3.21-.3-3.61,2.71-.32,2.53-1.06,10-1.06,10l-.74-.38C50.14,70.45,50.89,62.85,51.22,60.3Z"/><path class="5cbf0e3c-e8f5-4449-83ca-cb47b88ba831" d="M49.54,55.7l13.83-8,7,4S66.55,63.11,65,63.52C61,64.6,49.54,55.7,49.54,55.7Z"/><path class="0f3db166-70ef-4eb0-87f1-fd3a0c0d6136" d="M79,56.71,65,64.78s3-7.75,4-10.2,2.38-6.11,2.38-6.11l13.48-7.23Z"/><path class="6354fde5-e824-420f-a4f0-6685b69f2e7f" d="M49.54,57.29l10.69,6.17c3.86,2.23,5.25,2,6.49-1,1.15-2.77,4.56-11.74,5.1-13.24l-1.33-.77c0,.1-3.73,10-4.86,12.73-1,2.51-2,2.63-5.4.67L49.54,55.7Z"/><polygon class="5cbf0e3c-e8f5-4449-83ca-cb47b88ba831" points="84.31 40.53 85.65 41.3 71.82 49.24 70.49 48.47 84.31 40.53"/><path class="1cc5219f-4c1a-4502-87c7-16fdd2cf2a90" d="M23.07,50.66c-.36-2.8-.68-5.21-4.32-3.11l-1.79,1-2.76,1.6-1.79,1c-3.64,2.1-3.95,4.88-4.32,8.1C7.76,62.23,7,70.71,7,70.79l.74-.45c0-.09.74-8.38,1.07-11.29.39-3.46.71-5.2,3.6-6.87l1.79-1L17,49.55l1.79-1c2.9-1.68,3.21-.3,3.61,2.71.32,2.53,1.06,10,1.06,10l.74-.39C24.15,60.81,23.4,53.2,23.07,50.66Z"/><path class="1cc5219f-4c1a-4502-87c7-16fdd2cf2a90" d="M23.42,61.27l1.1.64s-.16-5.19-.36-7.14-1.1-6.31-1.1-6.31l-.44.34Z"/><path class="1cc5219f-4c1a-4502-87c7-16fdd2cf2a90" d="M8.1,71.43,7,70.79S8.27,61.17,8.48,59.7s1-4.93,1-4.93l1.21.3a16.31,16.31,0,0,0-1,3.7C9.52,60.26,8.1,71.43,8.1,71.43Z"/><path class="36ba8f6d-06ae-4963-83ee-c824254308c2" d="M24.17,51.3c-.37-2.8-.68-5.21-4.32-3.11l-1.79,1-2.76,1.6-1.79,1c-3.64,2.1-4,4.88-4.32,8.1C8.86,62.87,8.1,71.35,8.1,71.43L8.83,71c0-.09.74-8.38,1.07-11.29.39-3.46.71-5.2,3.61-6.87l1.79-1,2.76-1.59,1.79-1c2.89-1.67,3.21-.29,3.6,2.72.33,2.52,1.06,10,1.07,10l.74-.39C25.25,61.45,24.5,53.84,24.17,51.3Z"/><path class="0f3db166-70ef-4eb0-87f1-fd3a0c0d6136" d="M22.88,46.57,12.2,52.74c-3.86,2.23-5.26,2-6.49-1C4.56,49,1.15,40,.6,38.52l1.34-.77c0,.1,3.72,10,4.86,12.73,1,2.51,2,2.63,5.4.66L22.88,45Z"/><path class="1cc5219f-4c1a-4502-87c7-16fdd2cf2a90" d="M33.94,56.89c-.36-2.8-.68-5.22-4.32-3.12l-1.79,1L25.07,56.4l-1.79,1c-3.64,2.11-4,4.89-4.32,8.11-.33,2.92-1.08,11.39-1.09,11.48l.73-.46c0-.08.75-8.38,1.08-11.28.39-3.47.7-5.21,3.6-6.88l1.79-1,2.76-1.6,1.79-1c2.9-1.67,3.21-.3,3.6,2.72.33,2.52,1.06,10,1.07,10l.74-.39C35,67,34.27,59.43,33.94,56.89Z"/><path class="1cc5219f-4c1a-4502-87c7-16fdd2cf2a90" d="M34.29,67.5l1.1.64S35.23,62.94,35,61s-1.11-6.31-1.11-6.31l-.43.34Z"/><path class="1cc5219f-4c1a-4502-87c7-16fdd2cf2a90" d="M19,77.66,17.87,77s1.27-9.63,1.48-11.1,1-4.93,1-4.93l1.21.31a16.31,16.31,0,0,0-1,3.7C20.39,66.49,19,77.66,19,77.66Z"/><path class="36ba8f6d-06ae-4963-83ee-c824254308c2" d="M35,57.53c-.37-2.8-.68-5.22-4.32-3.12l-1.79,1L26.16,57l-1.78,1c-3.65,2.11-4,4.89-4.32,8.11C19.73,69.1,19,77.57,19,77.66l.73-.46c0-.08.74-8.38,1.07-11.28.39-3.47.71-5.21,3.61-6.88l1.78-1,2.77-1.6,1.79-1c2.89-1.67,3.21-.3,3.6,2.71.33,2.53,1.06,10,1.07,10l.74-.39C36.12,67.67,35.37,60.07,35,57.53Z"/><path class="5cbf0e3c-e8f5-4449-83ca-cb47b88ba831" d="M36.71,52.92,22.88,45l-7,4s3.79,11.34,5.31,11.75C25.25,61.82,36.71,52.92,36.71,52.92Z"/><path class="0f3db166-70ef-4eb0-87f1-fd3a0c0d6136" d="M7.23,53.94l14,8.07s-3-7.76-4-10.21-2.39-6.11-2.39-6.11L1.32,38.46Z"/><path class="6354fde5-e824-420f-a4f0-6685b69f2e7f" d="M36.71,54.52,26,60.69c-3.86,2.22-5.26,2-6.5-1C18.39,56.93,15,48,14.43,46.47l1.34-.78c0,.1,3.72,10,4.86,12.73,1,2.51,2,2.63,5.4.67l10.68-6.17Z"/><polygon class="5cbf0e3c-e8f5-4449-83ca-cb47b88ba831" points="1.94 37.75 0.6 38.52 14.43 46.47 15.77 45.69 1.94 37.75"/></svg>