<?xml version="1.0" encoding="UTF-8"?>
<svg xmlns="http://www.w3.org/2000/svg" xmlns:xlink="http://www.w3.org/1999/xlink" width="64pt" height="64pt" viewBox="0 0 64 64" version="1.1">
<g id="surface19441070">
<path style=" stroke:none;fill-rule:nonzero;fill:rgb(100%,100%,100%);fill-opacity:1;" d="M 30 4 C 15.6875 4 4 15.6875 4 30 C 4 44.3125 15.6875 56 30 56 C 43.515625 56 54.6875 45.59375 55.875 32.359375 L 56.265625 28 L 32 28 L 32 36 L 46.6875 36 C 44.1875 42.9375 37.828125 48 30 48 C 20.015625 48 12 39.984375 12 30 C 12 20.015625 20.015625 12 30 12 C 34.765625 12 39.0625 13.84375 42.28125 16.84375 L 47.75 11 C 43.09375 6.65625 36.84375 4 30 4 Z M 30 4 "/>
</g>
</svg>
